<?xml version="1.0" encoding="UTF-8" standalone="no"?>
<!DOCTYPE svg PUBLIC "-//W3C//DTD SVG 1.1//EN"
 "http://www.w3.org/Graphics/SVG/1.1/DTD/svg11.dtd">
<!-- Generated by graphviz version 2.40.1 (20161225.0304)
 -->
<!-- Title: dependencies Pages: 1 -->
<svg width="721pt" height="360pt"
 viewBox="0.00 0.00 721.00 360.00" xmlns="http://www.w3.org/2000/svg" xmlns:xlink="http://www.w3.org/1999/xlink">
<g id="graph0" class="graph" transform="scale(1 1) rotate(0) translate(4 356)">
<title>dependencies</title>
<polygon fill="#ffffff" stroke="transparent" points="-4,4 -4,-356 717,-356 717,4 -4,4"/>
<text text-anchor="start" x="335.5091" y="-42.4" font-family="sans-serif" font-weight="bold" font-size="14.00" fill="#000000">Legend</text>
<polygon fill="#ffffb3" stroke="transparent" points="122.5,-10 122.5,-30 142.5,-30 142.5,-10 122.5,-10"/>
<text text-anchor="start" x="146.129" y="-15.4" font-family="sans-serif" font-size="14.00" fill="#000000"> &#160;Declarations</text>
<polygon fill="#8dd3c7" stroke="transparent" points="235.5,-10 235.5,-30 255.5,-30 255.5,-10 235.5,-10"/>
<text text-anchor="start" x="259.2251" y="-15.4" font-family="sans-serif" font-size="14.00" fill="#000000"> &#160;Module</text>
<polygon fill="#80b1d3" stroke="transparent" points="321.5,-10 321.5,-30 341.5,-30 341.5,-10 321.5,-10"/>
<text text-anchor="start" x="345.2812" y="-15.4" font-family="sans-serif" font-size="14.00" fill="#000000"> &#160;Bootstrap</text>
<polygon fill="#fdb462" stroke="transparent" points="418.5,-10 418.5,-30 438.5,-30 438.5,-10 418.5,-10"/>
<text text-anchor="start" x="442.1732" y="-15.4" font-family="sans-serif" font-size="14.00" fill="#000000"> &#160;Providers</text>
<polygon fill="#fb8072" stroke="transparent" points="514.5,-10 514.5,-30 534.5,-30 534.5,-10 514.5,-10"/>
<text text-anchor="start" x="538.2258" y="-15.4" font-family="sans-serif" font-size="14.00" fill="#000000"> &#160;Exports</text>
<g id="clust1" class="cluster">
<title>cluster_AppModule</title>
<polygon fill="none" stroke="#000000" stroke-dasharray="1,5" points="8,-146 8,-344 705,-344 705,-146 8,-146"/>
</g>
<g id="clust2" class="cluster">
<title>cluster_AppModule_declarations</title>
<polygon fill="none" stroke="#000000" points="294,-154 294,-206 697,-206 697,-154 294,-154"/>
</g>
<g id="clust6" class="cluster">
<title>cluster_AppModule_imports</title>
<polygon fill="none" stroke="#000000" points="166,-154 166,-206 286,-206 286,-154 166,-154"/>
</g>
<g id="clust8" class="cluster">
<title>cluster_AppModule_bootstrap</title>
<polygon fill="none" stroke="#000000" points="301,-284 301,-336 425,-336 425,-284 301,-284"/>
</g>
<g id="clust9" class="cluster">
<title>cluster_AppModule_providers</title>
<polygon fill="none" stroke="#000000" points="16,-154 16,-206 158,-206 158,-154 16,-154"/>
</g>
<g id="clust10" class="cluster">
<title>cluster_PubSubModule</title>
<polygon fill="none" stroke="#000000" stroke-dasharray="1,5" points="121,-70 121,-138 331,-138 331,-70 121,-70"/>
</g>
<g id="clust15" class="cluster">
<title>cluster_PubSubModule_providers</title>
<polygon fill="none" stroke="#000000" points="129,-78 129,-130 323,-130 323,-78 129,-78"/>
</g>
<!-- AppComponent -->
<g id="node1" class="node">
<title>AppComponent</title>
<polygon fill="#ffffb3" stroke="#000000" points="688.9399,-198 583.0601,-198 583.0601,-162 688.9399,-162 688.9399,-198"/>
<text text-anchor="middle" x="636" y="-175.8" font-family="Times,serif" font-size="14.00" fill="#000000">AppComponent</text>
</g>
<!-- AppModule -->
<g id="node4" class="node">
<title>AppModule</title>
<polygon fill="#8dd3c7" stroke="#000000" points="404.6571,-263 401.6571,-267 380.6571,-267 377.6571,-263 321.3429,-263 321.3429,-227 404.6571,-227 404.6571,-263"/>
<text text-anchor="middle" x="363" y="-240.8" font-family="Times,serif" font-size="14.00" fill="#000000">AppModule</text>
</g>
<!-- AppComponent&#45;&gt;AppModule -->
<g id="edge1" class="edge">
<title>AppComponent&#45;&gt;AppModule</title>
<path fill="none" stroke="#000000" d="M636,-198.2843C636,-219.3211 636,-251 636,-251 636,-251 414.76,-251 414.76,-251"/>
<polygon fill="#000000" stroke="#000000" points="414.76,-247.5001 404.76,-251 414.76,-254.5001 414.76,-247.5001"/>
</g>
<!-- Comp1Component -->
<g id="node2" class="node">
<title>Comp1Component</title>
<polygon fill="#ffffb3" stroke="#000000" points="565.0604,-198 442.9396,-198 442.9396,-162 565.0604,-162 565.0604,-198"/>
<text text-anchor="middle" x="504" y="-175.8" font-family="Times,serif" font-size="14.00" fill="#000000">Comp1Component</text>
</g>
<!-- Comp1Component&#45;&gt;AppModule -->
<g id="edge2" class="edge">
<title>Comp1Component&#45;&gt;AppModule</title>
<path fill="none" stroke="#000000" d="M504,-198.0225C504,-215.3734 504,-239 504,-239 504,-239 414.9229,-239 414.9229,-239"/>
<polygon fill="#000000" stroke="#000000" points="414.9229,-235.5001 404.9229,-239 414.9229,-242.5001 414.9229,-235.5001"/>
</g>
<!-- Comp2Component -->
<g id="node3" class="node">
<title>Comp2Component</title>
<polygon fill="#ffffb3" stroke="#000000" points="424.0604,-198 301.9396,-198 301.9396,-162 424.0604,-162 424.0604,-198"/>
<text text-anchor="middle" x="363" y="-175.8" font-family="Times,serif" font-size="14.00" fill="#000000">Comp2Component</text>
</g>
<!-- Comp2Component&#45;&gt;AppModule -->
<g id="edge3" class="edge">
<title>Comp2Component&#45;&gt;AppModule</title>
<path fill="none" stroke="#000000" d="M363,-198.1061C363,-198.1061 363,-216.991 363,-216.991"/>
<polygon fill="#000000" stroke="#000000" points="359.5001,-216.9909 363,-226.991 366.5001,-216.991 359.5001,-216.9909"/>
</g>
<!-- AppComponent  -->
<g id="node6" class="node">
<title>AppComponent </title>
<polygon fill="#80b1d3" stroke="#000000" points="417.439,-328 308.561,-328 308.561,-292 417.439,-292 417.439,-328"/>
<text text-anchor="middle" x="363" y="-305.8" font-family="Times,serif" font-size="14.00" fill="#000000">AppComponent </text>
</g>
<!-- AppModule&#45;&gt;AppComponent  -->
<g id="edge5" class="edge">
<title>AppModule&#45;&gt;AppComponent </title>
<path fill="none" stroke="#000000" stroke-dasharray="1,5" d="M363,-263.1061C363,-263.1061 363,-281.991 363,-281.991"/>
<polygon fill="#000000" stroke="#000000" points="359.5001,-281.9909 363,-291.991 366.5001,-281.991 359.5001,-281.9909"/>
</g>
<!-- PubSubModule -->
<g id="node5" class="node">
<title>PubSubModule</title>
<polygon fill="#8dd3c7" stroke="#000000" points="277.6151,-198 274.6151,-202 253.6151,-202 250.6151,-198 174.3849,-198 174.3849,-162 277.6151,-162 277.6151,-198"/>
<text text-anchor="middle" x="226" y="-175.8" font-family="Times,serif" font-size="14.00" fill="#000000">PubSubModule</text>
</g>
<!-- PubSubModule&#45;&gt;AppModule -->
<g id="edge4" class="edge">
<title>PubSubModule&#45;&gt;AppModule</title>
<path fill="none" stroke="#000000" d="M226,-198.0225C226,-215.3734 226,-239 226,-239 226,-239 311.1511,-239 311.1511,-239"/>
<polygon fill="#000000" stroke="#000000" points="311.1511,-242.5001 321.1511,-239 311.151,-235.5001 311.1511,-242.5001"/>
</g>
<!-- Serv1Service -->
<g id="node7" class="node">
<title>Serv1Service</title>
<ellipse fill="#fdb462" stroke="#000000" cx="87" cy="-180" rx="62.5373" ry="18"/>
<text text-anchor="middle" x="87" y="-175.8" font-family="Times,serif" font-size="14.00" fill="#000000">Serv1Service</text>
</g>
<!-- Serv1Service&#45;&gt;AppModule -->
<g id="edge6" class="edge">
<title>Serv1Service&#45;&gt;AppModule</title>
<path fill="none" stroke="#000000" d="M87,-198.2843C87,-219.3211 87,-251 87,-251 87,-251 311.0815,-251 311.0815,-251"/>
<polygon fill="#000000" stroke="#000000" points="311.0816,-254.5001 321.0815,-251 311.0815,-247.5001 311.0816,-254.5001"/>
</g>
<!-- SubscriptionService -->
<g id="node8" class="node">
<title>SubscriptionService</title>
<ellipse fill="#fdb462" stroke="#000000" cx="226" cy="-104" rx="88.6217" ry="18"/>
<text text-anchor="middle" x="226" y="-99.8" font-family="Times,serif" font-size="14.00" fill="#000000">SubscriptionService</text>
</g>
<!-- SubscriptionService&#45;&gt;PubSubModule -->
<g id="edge7" class="edge">
<title>SubscriptionService&#45;&gt;PubSubModule</title>
<path fill="none" stroke="#000000" d="M226,-122.0109C226,-122.0109 226,-151.855 226,-151.855"/>
<polygon fill="#000000" stroke="#000000" points="222.5001,-151.8549 226,-161.855 229.5001,-151.855 222.5001,-151.8549"/>
</g>
</g>
</svg>
